<?xml version="1.0" standalone="no"?>
<svg id="byProtosus" width="112" height="23" viewBox="0 0 112 23" fill="none" xmlns="http://www.w3.org/2000/svg" style="max-width: 100%; max-height: 100%;">
<mask id="path-1-inside-1_1103_3417" fill="white">
<path d="M5.70786 0.365173C8.48897 0.365173 10.6224 0.946086 12.1082 2.10791C13.6131 3.24899 14.3655 4.96061 14.3655 7.24277C14.3655 8.48758 14.156 9.55604 13.7369 10.4482C13.3369 11.3195 12.7464 12.0353 11.9654 12.5955C11.2034 13.1349 10.27 13.5291 9.1652 13.778C8.06037 14.027 6.81268 14.1515 5.42213 14.1515H3.22199V22.1494H0.450409V0.89422C1.23141 0.686751 2.09812 0.551896 3.05056 0.489655C4.02205 0.406667 4.90781 0.365173 5.70786 0.365173ZM5.93644 3.0104C4.75542 3.0104 3.8506 3.04152 3.22199 3.10376V11.5685H5.30783C6.26027 11.5685 7.11746 11.5063 7.87941 11.3818C8.64136 11.2365 9.27949 11.0083 9.79381 10.6971C10.3272 10.3652 10.7367 9.91912 11.0224 9.35895C11.3082 8.79878 11.451 8.08302 11.451 7.21165C11.451 6.38177 11.2987 5.69712 10.9939 5.15771C10.7081 4.61829 10.3081 4.19298 9.79381 3.88177C9.29854 3.54982 8.71756 3.32161 8.05085 3.19712C7.38414 3.07264 6.67934 3.0104 5.93644 3.0104Z" stroke-dasharray="0,0,0,0,0,94.89742279052734"><animate attributeType="XML" attributeName="stroke-dasharray" repeatCount="indefinite" dur="4.000793678047557s" values="0,0,0,0,0,94.89742279052734; 
          0,0,0,10.771078488438407,62.58418732521212,21.542156976876814; 
          0,0,31.632474263509113,0,63.26494852701823,94.89742279052734; 
          0,0,63.26494852701823,0,31.632474263509113,94.89742279052734; 
          0,0,79.08118565877278,15.816237131754557,0,0; 
          0,94.89742279052734,0,31.632474263509113,0,94.89742279052734" keyTimes="0; 0.16666666666666666; 0.3333; 0.6666; 0.8333; 1" begin="0.405592047267176s"></animate></path>
<path d="M23.1488 5.62451C23.3774 5.62451 23.6346 5.64526 23.9203 5.68675C24.2251 5.7075 24.5203 5.74899 24.8061 5.81123C25.0918 5.85273 25.349 5.90459 25.5775 5.96683C25.8252 6.00833 26.0061 6.04982 26.1204 6.09131L25.6633 8.61206C25.4537 8.52907 25.1013 8.43571 24.6061 8.33198C24.1298 8.2075 23.5108 8.14526 22.7488 8.14526C22.2535 8.14526 21.7583 8.2075 21.263 8.33198C20.7868 8.43571 20.4725 8.50833 20.3201 8.54982V22.1494H17.6628V6.65148C18.2914 6.40252 19.0724 6.1743 20.0058 5.96683C20.9392 5.73862 21.9869 5.62451 23.1488 5.62451Z" stroke-dasharray="0,0,0,0,0,48.37953186035156"><animate attributeType="XML" attributeName="stroke-dasharray" repeatCount="indefinite" dur="3.9541289256387158s" values="0,0,0,0,0,48.37953186035156; 
          0,0,0,4.820628650344669,33.91764590931756,9.641257300689338; 
          0,0,16.126510620117188,0,32.253021240234375,48.37953186035156; 
          0,0,32.253021240234375,0,16.126510620117188,48.37953186035156; 
          0,0,40.31627655029297,8.063255310058594,0,0; 
          0,48.37953186035156,0,16.126510620117188,0,48.37953186035156" keyTimes="0; 0.16666666666666666; 0.3333; 0.6666; 0.8333; 1" begin="0.21241794248480603s"></animate></path>
<path d="M41.7997 14.0581C41.7997 15.3444 41.6283 16.5063 41.2854 17.5436C40.9425 18.5809 40.4568 19.4731 39.8282 20.2199C39.2186 20.9668 38.4852 21.5477 37.628 21.9627C36.7708 22.3569 35.8374 22.554 34.8279 22.554C33.8183 22.554 32.8849 22.3569 32.0277 21.9627C31.1705 21.5477 30.4276 20.9668 29.799 20.2199C29.1894 19.4731 28.7132 18.5809 28.3703 17.5436C28.0275 16.5063 27.856 15.3444 27.856 14.0581C27.856 12.7926 28.0275 11.6411 28.3703 10.6038C28.7132 9.54567 29.1894 8.64318 29.799 7.89629C30.4276 7.14941 31.1705 6.57887 32.0277 6.18468C32.8849 5.76974 33.8183 5.56227 34.8279 5.56227C35.8374 5.56227 36.7708 5.76974 37.628 6.18468C38.4852 6.57887 39.2186 7.14941 39.8282 7.89629C40.4568 8.64318 40.9425 9.54567 41.2854 10.6038C41.6283 11.6411 41.7997 12.7926 41.7997 14.0581ZM39.0281 14.0581C39.0281 12.2324 38.6471 10.7905 37.8852 9.73239C37.1423 8.65355 36.1232 8.11414 34.8279 8.11414C33.5325 8.11414 32.5039 8.65355 31.742 9.73239C30.9991 10.7905 30.6276 12.2324 30.6276 14.0581C30.6276 15.8838 30.9991 17.3361 31.742 18.415C32.5039 19.4731 33.5325 20.0021 34.8279 20.0021C36.1232 20.0021 37.1423 19.4731 37.8852 18.415C38.6471 17.3361 39.0281 15.8838 39.0281 14.0581Z" stroke-dasharray="0,0,0,0,0,81.94632720947266"><animate attributeType="XML" attributeName="stroke-dasharray" repeatCount="indefinite" dur="3.9757781937165215s" values="0,0,0,0,0,81.94632720947266; 
          0,0,0,8.159799799087626,57.466927812209775,16.31959959817525; 
          0,0,27.31544240315755,0,54.6308848063151,81.94632720947266; 
          0,0,54.6308848063151,0,27.31544240315755,81.94632720947266; 
          0,0,68.28860600789388,13.657721201578775,0,0; 
          0,81.94632720947266,0,27.31544240315755,0,81.94632720947266" keyTimes="0; 0.16666666666666666; 0.3333; 0.6666; 0.8333; 1" begin="0.7668231852105981s"></animate></path>
<path d="M48.0242 5.96683H53.6531V8.39422H48.0242V15.8631C48.0242 16.6722 48.0813 17.3465 48.1956 17.8859C48.3099 18.4046 48.4813 18.8195 48.7099 19.1307C48.9385 19.4212 49.2242 19.6287 49.5671 19.7531C49.91 19.8776 50.31 19.9399 50.7672 19.9399C51.5672 19.9399 52.2054 19.8465 52.6816 19.6598C53.1768 19.4523 53.5197 19.3071 53.7102 19.2241L54.2245 21.6204C53.9578 21.7656 53.4911 21.9419 52.8244 22.1494C52.1577 22.3776 51.3958 22.4917 50.5386 22.4917C49.529 22.4917 48.6909 22.3569 48.0242 22.0872C47.3765 21.7967 46.8527 21.3714 46.4526 20.8112C46.0526 20.2511 45.7669 19.5664 45.5955 18.7573C45.4431 17.9274 45.3669 16.9731 45.3669 15.8942V1.45439L48.0242 0.95646V5.96683Z" stroke-dasharray="0,0,0,0,0,68.05429077148438"><animate attributeType="XML" attributeName="stroke-dasharray" repeatCount="indefinite" dur="3.479979668000227s" values="0,0,0,0,0,68.05429077148438; 
          0,0,0,6.969880557560124,47.144649098804,13.939761115120248; 
          0,0,22.684763590494793,0,45.369527180989586,68.05429077148438; 
          0,0,45.369527180989586,0,22.684763590494793,68.05429077148438; 
          0,0,56.71190897623698,11.342381795247396,0,0; 
          0,68.05429077148438,0,22.684763590494793,0,68.05429077148438" keyTimes="0; 0.16666666666666666; 0.3333; 0.6666; 0.8333; 1" begin="0.5365970041458893s"></animate></path>
<path d="M69.7589 14.0581C69.7589 15.3444 69.5875 16.5063 69.2446 17.5436C68.9017 18.5809 68.416 19.4731 67.7874 20.2199C67.1778 20.9668 66.4444 21.5477 65.5872 21.9627C64.7301 22.3569 63.7967 22.554 62.7871 22.554C61.7775 22.554 60.8441 22.3569 59.9869 21.9627C59.1297 21.5477 58.3868 20.9668 57.7582 20.2199C57.1487 19.4731 56.6724 18.5809 56.3296 17.5436C55.9867 16.5063 55.8152 15.3444 55.8152 14.0581C55.8152 12.7926 55.9867 11.6411 56.3296 10.6038C56.6724 9.54567 57.1487 8.64318 57.7582 7.89629C58.3868 7.14941 59.1297 6.57887 59.9869 6.18468C60.8441 5.76974 61.7775 5.56227 62.7871 5.56227C63.7967 5.56227 64.7301 5.76974 65.5872 6.18468C66.4444 6.57887 67.1778 7.14941 67.7874 7.89629C68.416 8.64318 68.9017 9.54567 69.2446 10.6038C69.5875 11.6411 69.7589 12.7926 69.7589 14.0581ZM66.9873 14.0581C66.9873 12.2324 66.6064 10.7905 65.8444 9.73239C65.1015 8.65355 64.0824 8.11414 62.7871 8.11414C61.4918 8.11414 60.4631 8.65355 59.7012 9.73239C58.9583 10.7905 58.5868 12.2324 58.5868 14.0581C58.5868 15.8838 58.9583 17.3361 59.7012 18.415C60.4631 19.4731 61.4918 20.0021 62.7871 20.0021C64.0824 20.0021 65.1015 19.4731 65.8444 18.415C66.6064 17.3361 66.9873 15.8838 66.9873 14.0581Z" stroke-dasharray="0,0,0,0,0,81.9463119506836"><animate attributeType="XML" attributeName="stroke-dasharray" repeatCount="indefinite" dur="3.6192291724802352s" values="0,0,0,0,0,81.9463119506836; 
          0,0,0,9.711714122830035,52.81116958219349,19.42342824566007; 
          0,0,27.31543731689453,0,54.63087463378906,81.9463119506836; 
          0,0,54.63087463378906,0,27.31543731689453,81.9463119506836; 
          0,0,68.28859329223633,13.657718658447266,0,0; 
          0,81.9463119506836,0,27.31543731689453,0,81.9463119506836" keyTimes="0; 0.16666666666666666; 0.3333; 0.6666; 0.8333; 1" begin="0.25409351925215345s"></animate></path>
<path d="M76.9549 20.0643C78.0407 20.0643 78.8407 19.9087 79.355 19.5975C79.8884 19.2863 80.1551 18.7884 80.1551 18.1038C80.1551 17.3984 79.8979 16.8382 79.3836 16.4233C78.8693 16.0083 78.0216 15.5415 76.8406 15.0229C76.2691 14.7739 75.7167 14.5249 75.1833 14.276C74.669 14.0063 74.2214 13.695 73.8404 13.3424C73.4594 12.9897 73.1546 12.5643 72.9261 12.0664C72.6975 11.5685 72.5832 10.9565 72.5832 10.2303C72.5832 8.79878 73.0689 7.66808 74.0404 6.8382C75.0119 5.98758 76.3358 5.56227 78.0121 5.56227C78.4312 5.56227 78.8502 5.59339 79.2693 5.65563C79.6884 5.69713 80.0789 5.75936 80.4408 5.84235C80.8027 5.90459 81.117 5.97721 81.3837 6.0602C81.6694 6.14318 81.8885 6.2158 82.0409 6.27804L81.5551 8.76766C81.2694 8.60169 80.8218 8.43571 80.2122 8.26974C79.6026 8.08302 78.8693 7.98966 78.0121 7.98966C77.2692 7.98966 76.6215 8.15563 76.0691 8.48758C75.5167 8.79878 75.2405 9.29671 75.2405 9.98136C75.2405 10.3341 75.2976 10.6453 75.4119 10.915C75.5453 11.1847 75.7357 11.4336 75.9834 11.6619C76.2501 11.8693 76.5739 12.0664 76.9549 12.2531C77.3359 12.4399 77.793 12.637 78.3264 12.8444C79.0312 13.1349 79.6598 13.4253 80.2122 13.7158C80.7646 13.9855 81.2313 14.3071 81.6123 14.6805C82.0123 15.054 82.3171 15.5104 82.5266 16.0498C82.7362 16.5685 82.8409 17.2116 82.8409 17.9793C82.8409 19.4731 82.3266 20.6038 81.298 21.3714C80.2884 22.139 78.8407 22.5228 76.9549 22.5228C75.6405 22.5228 74.6119 22.3984 73.869 22.1494C73.1261 21.9212 72.6213 21.7448 72.3546 21.6204L72.8403 19.1307C73.1451 19.2552 73.6309 19.4419 74.2976 19.6909C74.9643 19.9399 75.8501 20.0643 76.9549 20.0643Z" stroke-dasharray="0,0,0,0,0,70.1438980102539"><animate attributeType="XML" attributeName="stroke-dasharray" repeatCount="indefinite" dur="3.5851224478979944s" values="0,0,0,0,0,70.1438980102539; 
          0,0,0,7.796763692776347,46.753606931924864,15.593527385552694; 
          0,0,23.3812993367513,0,46.7625986735026,70.1438980102539; 
          0,0,46.7625986735026,0,23.3812993367513,70.1438980102539; 
          0,0,58.45324834187826,11.69064966837565,0,0; 
          0,70.1438980102539,0,23.3812993367513,0,70.1438980102539" keyTimes="0; 0.16666666666666666; 0.3333; 0.6666; 0.8333; 1" begin="1.1762580918837577s"></animate></path>
<path d="M98.0786 21.6826C97.4691 21.8486 96.6595 22.0249 95.6499 22.2116C94.6594 22.3984 93.507 22.4917 92.1926 22.4917C91.0497 22.4917 90.0877 22.3154 89.3067 21.9627C88.5257 21.5892 87.8971 21.0706 87.4209 20.4067C86.9447 19.7428 86.6018 18.9648 86.3922 18.0726C86.1827 17.1598 86.078 16.1536 86.078 15.054V5.96683H88.7352V14.4316C88.7352 16.4025 89.021 17.8133 89.5924 18.6639C90.1639 19.5146 91.1259 19.9399 92.4783 19.9399C92.764 19.9399 93.0593 19.9295 93.3641 19.9087C93.6689 19.888 93.9546 19.8672 94.2213 19.8465C94.488 19.805 94.7261 19.7739 94.9356 19.7531C95.1642 19.7116 95.3261 19.6702 95.4213 19.6287V5.96683H98.0786V21.6826Z" stroke-dasharray="0,0,0,0,0,79.87749481201172"><animate attributeType="XML" attributeName="stroke-dasharray" repeatCount="indefinite" dur="4.055176454631184s" values="0,0,0,0,0,79.87749481201172; 
          0,0,0,8.698456398535162,53.78212561640623,17.396912797070325; 
          0,0,26.625831604003906,0,53.25166320800781,79.87749481201172; 
          0,0,53.25166320800781,0,26.625831604003906,79.87749481201172; 
          0,0,66.56457901000977,13.312915802001953,0,0; 
          0,79.87749481201172,0,26.625831604003906,0,79.87749481201172" keyTimes="0; 0.16666666666666666; 0.3333; 0.6666; 0.8333; 1" begin="0.3870817846439634s"></animate></path>
<path d="M106.114 20.0643C107.2 20.0643 108 19.9087 108.514 19.5975C109.047 19.2863 109.314 18.7884 109.314 18.1038C109.314 17.3984 109.057 16.8382 108.543 16.4233C108.028 16.0083 107.181 15.5415 106 15.0229C105.428 14.7739 104.876 14.5249 104.342 14.276C103.828 14.0063 103.38 13.695 102.999 13.3424C102.618 12.9897 102.314 12.5643 102.085 12.0664C101.857 11.5685 101.742 10.9565 101.742 10.2303C101.742 8.79878 102.228 7.66808 103.199 6.8382C104.171 5.98758 105.495 5.56227 107.171 5.56227C107.59 5.56227 108.009 5.59339 108.428 5.65563C108.847 5.69713 109.238 5.75936 109.6 5.84235C109.962 5.90459 110.276 5.97721 110.543 6.0602C110.828 6.14318 111.048 6.2158 111.2 6.27804L110.714 8.76766C110.428 8.60169 109.981 8.43571 109.371 8.26974C108.762 8.08302 108.028 7.98966 107.171 7.98966C106.428 7.98966 105.781 8.15563 105.228 8.48758C104.676 8.79878 104.4 9.29671 104.4 9.98136C104.4 10.3341 104.457 10.6453 104.571 10.915C104.704 11.1847 104.895 11.4336 105.142 11.6619C105.409 11.8693 105.733 12.0664 106.114 12.2531C106.495 12.4399 106.952 12.637 107.485 12.8444C108.19 13.1349 108.819 13.4253 109.371 13.7158C109.924 13.9855 110.39 14.3071 110.771 14.6805C111.171 15.054 111.476 15.5104 111.686 16.0498C111.895 16.5685 112 17.2116 112 17.9793C112 19.4731 111.486 20.6038 110.457 21.3714C109.447 22.139 108 22.5228 106.114 22.5228C104.8 22.5228 103.771 22.3984 103.028 22.1494C102.285 21.9212 101.78 21.7448 101.514 21.6204L101.999 19.1307C102.304 19.2552 102.79 19.4419 103.457 19.6909C104.123 19.9399 105.009 20.0643 106.114 20.0643Z" stroke-dasharray="0,0,0,0,0,70.14364624023438"><animate attributeType="XML" attributeName="stroke-dasharray" repeatCount="indefinite" dur="3.553757848832825s" values="0,0,0,0,0,70.14364624023438; 
          0,0,0,8.664459374167803,44.15026811773097,17.328918748335607; 
          0,0,23.381215413411457,0,46.762430826822914,70.14364624023438; 
          0,0,46.762430826822914,0,23.381215413411457,70.14364624023438; 
          0,0,58.45303853352865,11.690607706705729,0,0; 
          0,70.14364624023438,0,23.381215413411457,0,70.14364624023438" keyTimes="0; 0.16666666666666666; 0.3333; 0.6666; 0.8333; 1" begin="0.7905982680278741s"></animate></path>
</mask>
<path d="M5.70786 0.365173C8.48897 0.365173 10.6224 0.946086 12.1082 2.10791C13.6131 3.24899 14.3655 4.96061 14.3655 7.24277C14.3655 8.48758 14.156 9.55604 13.7369 10.4482C13.3369 11.3195 12.7464 12.0353 11.9654 12.5955C11.2034 13.1349 10.27 13.5291 9.1652 13.778C8.06037 14.027 6.81268 14.1515 5.42213 14.1515H3.22199V22.1494H0.450409V0.89422C1.23141 0.686751 2.09812 0.551896 3.05056 0.489655C4.02205 0.406667 4.90781 0.365173 5.70786 0.365173ZM5.93644 3.0104C4.75542 3.0104 3.8506 3.04152 3.22199 3.10376V11.5685H5.30783C6.26027 11.5685 7.11746 11.5063 7.87941 11.3818C8.64136 11.2365 9.27949 11.0083 9.79381 10.6971C10.3272 10.3652 10.7367 9.91912 11.0224 9.35895C11.3082 8.79878 11.451 8.08302 11.451 7.21165C11.451 6.38177 11.2987 5.69712 10.9939 5.15771C10.7081 4.61829 10.3081 4.19298 9.79381 3.88177C9.29854 3.54982 8.71756 3.32161 8.05085 3.19712C7.38414 3.07264 6.67934 3.0104 5.93644 3.0104Z" stroke="#FF9C06" stroke-width="16" mask="url(#path-1-inside-1_1103_3417)" stroke-dasharray="0,0,0,0,0,94.89742279052734"><animate attributeType="XML" attributeName="stroke-dasharray" repeatCount="indefinite" dur="3.909668543484067s" values="0,0,0,0,0,94.89742279052734; 
          0,0,0,10.712452015586607,62.76006674376753,21.424904031173213; 
          0,0,31.632474263509113,0,63.26494852701823,94.89742279052734; 
          0,0,63.26494852701823,0,31.632474263509113,94.89742279052734; 
          0,0,79.08118565877278,15.816237131754557,0,0; 
          0,94.89742279052734,0,31.632474263509113,0,94.89742279052734" keyTimes="0; 0.16666666666666666; 0.3333; 0.6666; 0.8333; 1" begin="0.06924774687617229s"></animate></path>
<path d="M5.70786 0.365173C8.48897 0.365173 10.6224 0.946086 12.1082 2.10791C13.6131 3.24899 14.3655 4.96061 14.3655 7.24277C14.3655 8.48758 14.156 9.55604 13.7369 10.4482C13.3369 11.3195 12.7464 12.0353 11.9654 12.5955C11.2034 13.1349 10.27 13.5291 9.1652 13.778C8.06037 14.027 6.81268 14.1515 5.42213 14.1515H3.22199V22.1494H0.450409V0.89422C1.23141 0.686751 2.09812 0.551896 3.05056 0.489655C4.02205 0.406667 4.90781 0.365173 5.70786 0.365173ZM5.93644 3.0104C4.75542 3.0104 3.8506 3.04152 3.22199 3.10376V11.5685H5.30783C6.26027 11.5685 7.11746 11.5063 7.87941 11.3818C8.64136 11.2365 9.27949 11.0083 9.79381 10.6971C10.3272 10.3652 10.7367 9.91912 11.0224 9.35895C11.3082 8.79878 11.451 8.08302 11.451 7.21165C11.451 6.38177 11.2987 5.69712 10.9939 5.15771C10.7081 4.61829 10.3081 4.19298 9.79381 3.88177C9.29854 3.54982 8.71756 3.32161 8.05085 3.19712C7.38414 3.07264 6.67934 3.0104 5.93644 3.0104Z" stroke="#00DE73" stroke-width="16" mask="url(#path-1-inside-1_1103_3417)" stroke-dasharray="0,0,0,0,0,94.89742279052734"><animate attributeType="XML" attributeName="stroke-dasharray" repeatCount="indefinite" dur="3.939662206675922s" values="0,0,0,0,0,94.89742279052734; 
          0,0,0,9.962817182556801,65.00897124285694,19.925634365113602; 
          0,0,31.632474263509113,0,63.26494852701823,94.89742279052734; 
          0,0,63.26494852701823,0,31.632474263509113,94.89742279052734; 
          0,0,79.08118565877278,15.816237131754557,0,0; 
          0,94.89742279052734,0,31.632474263509113,0,94.89742279052734" keyTimes="0; 0.16666666666666666; 0.3333; 0.6666; 0.8333; 1" begin="0.9095125971190164s"></animate></path>
<path d="M5.70786 0.365173C8.48897 0.365173 10.6224 0.946086 12.1082 2.10791C13.6131 3.24899 14.3655 4.96061 14.3655 7.24277C14.3655 8.48758 14.156 9.55604 13.7369 10.4482C13.3369 11.3195 12.7464 12.0353 11.9654 12.5955C11.2034 13.1349 10.27 13.5291 9.1652 13.778C8.06037 14.027 6.81268 14.1515 5.42213 14.1515H3.22199V22.1494H0.450409V0.89422C1.23141 0.686751 2.09812 0.551896 3.05056 0.489655C4.02205 0.406667 4.90781 0.365173 5.70786 0.365173ZM5.93644 3.0104C4.75542 3.0104 3.8506 3.04152 3.22199 3.10376V11.5685H5.30783C6.26027 11.5685 7.11746 11.5063 7.87941 11.3818C8.64136 11.2365 9.27949 11.0083 9.79381 10.6971C10.3272 10.3652 10.7367 9.91912 11.0224 9.35895C11.3082 8.79878 11.451 8.08302 11.451 7.21165C11.451 6.38177 11.2987 5.69712 10.9939 5.15771C10.7081 4.61829 10.3081 4.19298 9.79381 3.88177C9.29854 3.54982 8.71756 3.32161 8.05085 3.19712C7.38414 3.07264 6.67934 3.0104 5.93644 3.0104Z" stroke="#FA00FF" stroke-width="16" mask="url(#path-1-inside-1_1103_3417)" stroke-dasharray="0,0,0,0,0,94.89742279052734"><animate attributeType="XML" attributeName="stroke-dasharray" repeatCount="indefinite" dur="3.7726753506652857s" values="0,0,0,0,0,94.89742279052734; 
          0,0,0,11.821456311575357,59.433053855801276,23.642912623150714; 
          0,0,31.632474263509113,0,63.26494852701823,94.89742279052734; 
          0,0,63.26494852701823,0,31.632474263509113,94.89742279052734; 
          0,0,79.08118565877278,15.816237131754557,0,0; 
          0,94.89742279052734,0,31.632474263509113,0,94.89742279052734" keyTimes="0; 0.16666666666666666; 0.3333; 0.6666; 0.8333; 1" begin="1.0067046993488242s"></animate></path>
<path d="M23.1488 5.62451C23.3774 5.62451 23.6346 5.64526 23.9203 5.68675C24.2251 5.7075 24.5203 5.74899 24.8061 5.81123C25.0918 5.85273 25.349 5.90459 25.5775 5.96683C25.8252 6.00833 26.0061 6.04982 26.1204 6.09131L25.6633 8.61206C25.4537 8.52907 25.1013 8.43571 24.6061 8.33198C24.1298 8.2075 23.5108 8.14526 22.7488 8.14526C22.2535 8.14526 21.7583 8.2075 21.263 8.33198C20.7868 8.43571 20.4725 8.50833 20.3201 8.54982V22.1494H17.6628V6.65148C18.2914 6.40252 19.0724 6.1743 20.0058 5.96683C20.9392 5.73862 21.9869 5.62451 23.1488 5.62451Z" stroke="#FF9C06" stroke-width="16" mask="url(#path-1-inside-1_1103_3417)" stroke-dasharray="0,0,0,0,0,48.37953186035156"><animate attributeType="XML" attributeName="stroke-dasharray" repeatCount="indefinite" dur="4.164234078471483s" values="0,0,0,0,0,48.37953186035156; 
          0,0,0,5.88705778057841,30.718358518616334,11.77411556115682; 
          0,0,16.126510620117188,0,32.253021240234375,48.37953186035156; 
          0,0,32.253021240234375,0,16.126510620117188,48.37953186035156; 
          0,0,40.31627655029297,8.063255310058594,0,0; 
          0,48.37953186035156,0,16.126510620117188,0,48.37953186035156" keyTimes="0; 0.16666666666666666; 0.3333; 0.6666; 0.8333; 1" begin="0.0997418528421412s"></animate></path>
<path d="M23.1488 5.62451C23.3774 5.62451 23.6346 5.64526 23.9203 5.68675C24.2251 5.7075 24.5203 5.74899 24.8061 5.81123C25.0918 5.85273 25.349 5.90459 25.5775 5.96683C25.8252 6.00833 26.0061 6.04982 26.1204 6.09131L25.6633 8.61206C25.4537 8.52907 25.1013 8.43571 24.6061 8.33198C24.1298 8.2075 23.5108 8.14526 22.7488 8.14526C22.2535 8.14526 21.7583 8.2075 21.263 8.33198C20.7868 8.43571 20.4725 8.50833 20.3201 8.54982V22.1494H17.6628V6.65148C18.2914 6.40252 19.0724 6.1743 20.0058 5.96683C20.9392 5.73862 21.9869 5.62451 23.1488 5.62451Z" stroke="#00DE73" stroke-width="16" mask="url(#path-1-inside-1_1103_3417)" stroke-dasharray="0,0,0,0,0,48.37953186035156"><animate attributeType="XML" attributeName="stroke-dasharray" repeatCount="indefinite" dur="3.638009443019772s" values="0,0,0,0,0,48.37953186035156; 
          0,0,0,4.649862879928999,34.42994322056457,9.299725759857997; 
          0,0,16.126510620117188,0,32.253021240234375,48.37953186035156; 
          0,0,32.253021240234375,0,16.126510620117188,48.37953186035156; 
          0,0,40.31627655029297,8.063255310058594,0,0; 
          0,48.37953186035156,0,16.126510620117188,0,48.37953186035156" keyTimes="0; 0.16666666666666666; 0.3333; 0.6666; 0.8333; 1" begin="0.4830598879514657s"></animate></path>
<path d="M23.1488 5.62451C23.3774 5.62451 23.6346 5.64526 23.9203 5.68675C24.2251 5.7075 24.5203 5.74899 24.8061 5.81123C25.0918 5.85273 25.349 5.90459 25.5775 5.96683C25.8252 6.00833 26.0061 6.04982 26.1204 6.09131L25.6633 8.61206C25.4537 8.52907 25.1013 8.43571 24.6061 8.33198C24.1298 8.2075 23.5108 8.14526 22.7488 8.14526C22.2535 8.14526 21.7583 8.2075 21.263 8.33198C20.7868 8.43571 20.4725 8.50833 20.3201 8.54982V22.1494H17.6628V6.65148C18.2914 6.40252 19.0724 6.1743 20.0058 5.96683C20.9392 5.73862 21.9869 5.62451 23.1488 5.62451Z" stroke="#FA00FF" stroke-width="16" mask="url(#path-1-inside-1_1103_3417)" stroke-dasharray="0,0,0,0,0,48.37953186035156"><animate attributeType="XML" attributeName="stroke-dasharray" repeatCount="indefinite" dur="3.3343425030626026s" values="0,0,0,0,0,48.37953186035156; 
          0,0,0,4.726878113155598,34.19889752088477,9.453756226311196; 
          0,0,16.126510620117188,0,32.253021240234375,48.37953186035156; 
          0,0,32.253021240234375,0,16.126510620117188,48.37953186035156; 
          0,0,40.31627655029297,8.063255310058594,0,0; 
          0,48.37953186035156,0,16.126510620117188,0,48.37953186035156" keyTimes="0; 0.16666666666666666; 0.3333; 0.6666; 0.8333; 1" begin="0.18358880910145942s"></animate></path>
<path d="M41.7997 14.0581C41.7997 15.3444 41.6283 16.5063 41.2854 17.5436C40.9425 18.5809 40.4568 19.4731 39.8282 20.2199C39.2186 20.9668 38.4852 21.5477 37.628 21.9627C36.7708 22.3569 35.8374 22.554 34.8279 22.554C33.8183 22.554 32.8849 22.3569 32.0277 21.9627C31.1705 21.5477 30.4276 20.9668 29.799 20.2199C29.1894 19.4731 28.7132 18.5809 28.3703 17.5436C28.0275 16.5063 27.856 15.3444 27.856 14.0581C27.856 12.7926 28.0275 11.6411 28.3703 10.6038C28.7132 9.54567 29.1894 8.64318 29.799 7.89629C30.4276 7.14941 31.1705 6.57887 32.0277 6.18468C32.8849 5.76974 33.8183 5.56227 34.8279 5.56227C35.8374 5.56227 36.7708 5.76974 37.628 6.18468C38.4852 6.57887 39.2186 7.14941 39.8282 7.89629C40.4568 8.64318 40.9425 9.54567 41.2854 10.6038C41.6283 11.6411 41.7997 12.7926 41.7997 14.0581ZM39.0281 14.0581C39.0281 12.2324 38.6471 10.7905 37.8852 9.73239C37.1423 8.65355 36.1232 8.11414 34.8279 8.11414C33.5325 8.11414 32.5039 8.65355 31.742 9.73239C30.9991 10.7905 30.6276 12.2324 30.6276 14.0581C30.6276 15.8838 30.9991 17.3361 31.742 18.415C32.5039 19.4731 33.5325 20.0021 34.8279 20.0021C36.1232 20.0021 37.1423 19.4731 37.8852 18.415C38.6471 17.3361 39.0281 15.8838 39.0281 14.0581Z" stroke="#FF9C06" stroke-width="16" mask="url(#path-1-inside-1_1103_3417)" stroke-dasharray="0,0,0,0,0,81.94632720947266"><animate attributeType="XML" attributeName="stroke-dasharray" repeatCount="indefinite" dur="3.5752315414119673s" values="0,0,0,0,0,81.94632720947266; 
          0,0,0,7.538738180991121,59.33011266649929,15.077476361982242; 
          0,0,27.31544240315755,0,54.6308848063151,81.94632720947266; 
          0,0,54.6308848063151,0,27.31544240315755,81.94632720947266; 
          0,0,68.28860600789388,13.657721201578775,0,0; 
          0,81.94632720947266,0,27.31544240315755,0,81.94632720947266" keyTimes="0; 0.16666666666666666; 0.3333; 0.6666; 0.8333; 1" begin="1.0012046701497168s"></animate></path>
<path d="M41.7997 14.0581C41.7997 15.3444 41.6283 16.5063 41.2854 17.5436C40.9425 18.5809 40.4568 19.4731 39.8282 20.2199C39.2186 20.9668 38.4852 21.5477 37.628 21.9627C36.7708 22.3569 35.8374 22.554 34.8279 22.554C33.8183 22.554 32.8849 22.3569 32.0277 21.9627C31.1705 21.5477 30.4276 20.9668 29.799 20.2199C29.1894 19.4731 28.7132 18.5809 28.3703 17.5436C28.0275 16.5063 27.856 15.3444 27.856 14.0581C27.856 12.7926 28.0275 11.6411 28.3703 10.6038C28.7132 9.54567 29.1894 8.64318 29.799 7.89629C30.4276 7.14941 31.1705 6.57887 32.0277 6.18468C32.8849 5.76974 33.8183 5.56227 34.8279 5.56227C35.8374 5.56227 36.7708 5.76974 37.628 6.18468C38.4852 6.57887 39.2186 7.14941 39.8282 7.89629C40.4568 8.64318 40.9425 9.54567 41.2854 10.6038C41.6283 11.6411 41.7997 12.7926 41.7997 14.0581ZM39.0281 14.0581C39.0281 12.2324 38.6471 10.7905 37.8852 9.73239C37.1423 8.65355 36.1232 8.11414 34.8279 8.11414C33.5325 8.11414 32.5039 8.65355 31.742 9.73239C30.9991 10.7905 30.6276 12.2324 30.6276 14.0581C30.6276 15.8838 30.9991 17.3361 31.742 18.415C32.5039 19.4731 33.5325 20.0021 34.8279 20.0021C36.1232 20.0021 37.1423 19.4731 37.8852 18.415C38.6471 17.3361 39.0281 15.8838 39.0281 14.0581Z" stroke="#00DE73" stroke-width="16" mask="url(#path-1-inside-1_1103_3417)" stroke-dasharray="0,0,0,0,0,81.94632720947266"><animate attributeType="XML" attributeName="stroke-dasharray" repeatCount="indefinite" dur="3.4014938643433057s" values="0,0,0,0,0,81.94632720947266; 
          0,0,0,11.347356108776866,47.90425888314206,22.694712217553732; 
          0,0,27.31544240315755,0,54.6308848063151,81.94632720947266; 
          0,0,54.6308848063151,0,27.31544240315755,81.94632720947266; 
          0,0,68.28860600789388,13.657721201578775,0,0; 
          0,81.94632720947266,0,27.31544240315755,0,81.94632720947266" keyTimes="0; 0.16666666666666666; 0.3333; 0.6666; 0.8333; 1" begin="0.25821689086090693s"></animate></path>
<path d="M41.7997 14.0581C41.7997 15.3444 41.6283 16.5063 41.2854 17.5436C40.9425 18.5809 40.4568 19.4731 39.8282 20.2199C39.2186 20.9668 38.4852 21.5477 37.628 21.9627C36.7708 22.3569 35.8374 22.554 34.8279 22.554C33.8183 22.554 32.8849 22.3569 32.0277 21.9627C31.1705 21.5477 30.4276 20.9668 29.799 20.2199C29.1894 19.4731 28.7132 18.5809 28.3703 17.5436C28.0275 16.5063 27.856 15.3444 27.856 14.0581C27.856 12.7926 28.0275 11.6411 28.3703 10.6038C28.7132 9.54567 29.1894 8.64318 29.799 7.89629C30.4276 7.14941 31.1705 6.57887 32.0277 6.18468C32.8849 5.76974 33.8183 5.56227 34.8279 5.56227C35.8374 5.56227 36.7708 5.76974 37.628 6.18468C38.4852 6.57887 39.2186 7.14941 39.8282 7.89629C40.4568 8.64318 40.9425 9.54567 41.2854 10.6038C41.6283 11.6411 41.7997 12.7926 41.7997 14.0581ZM39.0281 14.0581C39.0281 12.2324 38.6471 10.7905 37.8852 9.73239C37.1423 8.65355 36.1232 8.11414 34.8279 8.11414C33.5325 8.11414 32.5039 8.65355 31.742 9.73239C30.9991 10.7905 30.6276 12.2324 30.6276 14.0581C30.6276 15.8838 30.9991 17.3361 31.742 18.415C32.5039 19.4731 33.5325 20.0021 34.8279 20.0021C36.1232 20.0021 37.1423 19.4731 37.8852 18.415C38.6471 17.3361 39.0281 15.8838 39.0281 14.0581Z" stroke="#FA00FF" stroke-width="16" mask="url(#path-1-inside-1_1103_3417)" stroke-dasharray="0,0,0,0,0,81.94632720947266"><animate attributeType="XML" attributeName="stroke-dasharray" repeatCount="indefinite" dur="4.140183892017684s" values="0,0,0,0,0,81.94632720947266; 
          0,0,0,8.38772505774706,56.78315203623148,16.77545011549412; 
          0,0,27.31544240315755,0,54.6308848063151,81.94632720947266; 
          0,0,54.6308848063151,0,27.31544240315755,81.94632720947266; 
          0,0,68.28860600789388,13.657721201578775,0,0; 
          0,81.94632720947266,0,27.31544240315755,0,81.94632720947266" keyTimes="0; 0.16666666666666666; 0.3333; 0.6666; 0.8333; 1" begin="1.0599116407686988s"></animate></path>
<path d="M48.0242 5.96683H53.6531V8.39422H48.0242V15.8631C48.0242 16.6722 48.0813 17.3465 48.1956 17.8859C48.3099 18.4046 48.4813 18.8195 48.7099 19.1307C48.9385 19.4212 49.2242 19.6287 49.5671 19.7531C49.91 19.8776 50.31 19.9399 50.7672 19.9399C51.5672 19.9399 52.2054 19.8465 52.6816 19.6598C53.1768 19.4523 53.5197 19.3071 53.7102 19.2241L54.2245 21.6204C53.9578 21.7656 53.4911 21.9419 52.8244 22.1494C52.1577 22.3776 51.3958 22.4917 50.5386 22.4917C49.529 22.4917 48.6909 22.3569 48.0242 22.0872C47.3765 21.7967 46.8527 21.3714 46.4526 20.8112C46.0526 20.2511 45.7669 19.5664 45.5955 18.7573C45.4431 17.9274 45.3669 16.9731 45.3669 15.8942V1.45439L48.0242 0.95646V5.96683Z" stroke="#FF9C06" stroke-width="16" mask="url(#path-1-inside-1_1103_3417)" stroke-dasharray="0,0,0,0,0,68.05429077148438"><animate attributeType="XML" attributeName="stroke-dasharray" repeatCount="indefinite" dur="3.826809074074053s" values="0,0,0,0,0,68.05429077148438; 
          0,0,0,8.609739830529675,42.225071279895346,17.21947966105935; 
          0,0,22.684763590494793,0,45.369527180989586,68.05429077148438; 
          0,0,45.369527180989586,0,22.684763590494793,68.05429077148438; 
          0,0,56.71190897623698,11.342381795247396,0,0; 
          0,68.05429077148438,0,22.684763590494793,0,68.05429077148438" keyTimes="0; 0.16666666666666666; 0.3333; 0.6666; 0.8333; 1" begin="0.5215254605193467s"></animate></path>
<path d="M48.0242 5.96683H53.6531V8.39422H48.0242V15.8631C48.0242 16.6722 48.0813 17.3465 48.1956 17.8859C48.3099 18.4046 48.4813 18.8195 48.7099 19.1307C48.9385 19.4212 49.2242 19.6287 49.5671 19.7531C49.91 19.8776 50.31 19.9399 50.7672 19.9399C51.5672 19.9399 52.2054 19.8465 52.6816 19.6598C53.1768 19.4523 53.5197 19.3071 53.7102 19.2241L54.2245 21.6204C53.9578 21.7656 53.4911 21.9419 52.8244 22.1494C52.1577 22.3776 51.3958 22.4917 50.5386 22.4917C49.529 22.4917 48.6909 22.3569 48.0242 22.0872C47.3765 21.7967 46.8527 21.3714 46.4526 20.8112C46.0526 20.2511 45.7669 19.5664 45.5955 18.7573C45.4431 17.9274 45.3669 16.9731 45.3669 15.8942V1.45439L48.0242 0.95646V5.96683Z" stroke="#00DE73" stroke-width="16" mask="url(#path-1-inside-1_1103_3417)" stroke-dasharray="0,0,0,0,0,68.05429077148438"><animate attributeType="XML" attributeName="stroke-dasharray" repeatCount="indefinite" dur="3.4299338352518145s" values="0,0,0,0,0,68.05429077148438; 
          0,0,0,6.627547218537016,48.17164911587333,13.255094437074032; 
          0,0,22.684763590494793,0,45.369527180989586,68.05429077148438; 
          0,0,45.369527180989586,0,22.684763590494793,68.05429077148438; 
          0,0,56.71190897623698,11.342381795247396,0,0; 
          0,68.05429077148438,0,22.684763590494793,0,68.05429077148438" keyTimes="0; 0.16666666666666666; 0.3333; 0.6666; 0.8333; 1" begin="0.6685171440592118s"></animate></path>
<path d="M48.0242 5.96683H53.6531V8.39422H48.0242V15.8631C48.0242 16.6722 48.0813 17.3465 48.1956 17.8859C48.3099 18.4046 48.4813 18.8195 48.7099 19.1307C48.9385 19.4212 49.2242 19.6287 49.5671 19.7531C49.91 19.8776 50.31 19.9399 50.7672 19.9399C51.5672 19.9399 52.2054 19.8465 52.6816 19.6598C53.1768 19.4523 53.5197 19.3071 53.7102 19.2241L54.2245 21.6204C53.9578 21.7656 53.4911 21.9419 52.8244 22.1494C52.1577 22.3776 51.3958 22.4917 50.5386 22.4917C49.529 22.4917 48.6909 22.3569 48.0242 22.0872C47.3765 21.7967 46.8527 21.3714 46.4526 20.8112C46.0526 20.2511 45.7669 19.5664 45.5955 18.7573C45.4431 17.9274 45.3669 16.9731 45.3669 15.8942V1.45439L48.0242 0.95646V5.96683Z" stroke="#FA00FF" stroke-width="16" mask="url(#path-1-inside-1_1103_3417)" stroke-dasharray="0,0,0,0,0,68.05429077148438"><animate attributeType="XML" attributeName="stroke-dasharray" repeatCount="indefinite" dur="3.7987139839533826s" values="0,0,0,0,0,68.05429077148438; 
          0,0,0,6.302892444643571,49.14561343755366,12.605784889287142; 
          0,0,22.684763590494793,0,45.369527180989586,68.05429077148438; 
          0,0,45.369527180989586,0,22.684763590494793,68.05429077148438; 
          0,0,56.71190897623698,11.342381795247396,0,0; 
          0,68.05429077148438,0,22.684763590494793,0,68.05429077148438" keyTimes="0; 0.16666666666666666; 0.3333; 0.6666; 0.8333; 1" begin="0.6122343940292972s"></animate></path>
<path d="M69.7589 14.0581C69.7589 15.3444 69.5875 16.5063 69.2446 17.5436C68.9017 18.5809 68.416 19.4731 67.7874 20.2199C67.1778 20.9668 66.4444 21.5477 65.5872 21.9627C64.7301 22.3569 63.7967 22.554 62.7871 22.554C61.7775 22.554 60.8441 22.3569 59.9869 21.9627C59.1297 21.5477 58.3868 20.9668 57.7582 20.2199C57.1487 19.4731 56.6724 18.5809 56.3296 17.5436C55.9867 16.5063 55.8152 15.3444 55.8152 14.0581C55.8152 12.7926 55.9867 11.6411 56.3296 10.6038C56.6724 9.54567 57.1487 8.64318 57.7582 7.89629C58.3868 7.14941 59.1297 6.57887 59.9869 6.18468C60.8441 5.76974 61.7775 5.56227 62.7871 5.56227C63.7967 5.56227 64.7301 5.76974 65.5872 6.18468C66.4444 6.57887 67.1778 7.14941 67.7874 7.89629C68.416 8.64318 68.9017 9.54567 69.2446 10.6038C69.5875 11.6411 69.7589 12.7926 69.7589 14.0581ZM66.9873 14.0581C66.9873 12.2324 66.6064 10.7905 65.8444 9.73239C65.1015 8.65355 64.0824 8.11414 62.7871 8.11414C61.4918 8.11414 60.4631 8.65355 59.7012 9.73239C58.9583 10.7905 58.5868 12.2324 58.5868 14.0581C58.5868 15.8838 58.9583 17.3361 59.7012 18.415C60.4631 19.4731 61.4918 20.0021 62.7871 20.0021C64.0824 20.0021 65.1015 19.4731 65.8444 18.415C66.6064 17.3361 66.9873 15.8838 66.9873 14.0581Z" stroke="#FF9C06" stroke-width="16" mask="url(#path-1-inside-1_1103_3417)" stroke-dasharray="0,0,0,0,0,81.9463119506836"><animate attributeType="XML" attributeName="stroke-dasharray" repeatCount="indefinite" dur="4.098481582608071s" values="0,0,0,0,0,81.9463119506836; 
          0,0,0,8.734364461118659,55.74321856732762,17.468728922237318; 
          0,0,27.31543731689453,0,54.63087463378906,81.9463119506836; 
          0,0,54.63087463378906,0,27.31543731689453,81.9463119506836; 
          0,0,68.28859329223633,13.657718658447266,0,0; 
          0,81.9463119506836,0,27.31543731689453,0,81.9463119506836" keyTimes="0; 0.16666666666666666; 0.3333; 0.6666; 0.8333; 1" begin="0.475381838684502s"></animate></path>
<path d="M69.7589 14.0581C69.7589 15.3444 69.5875 16.5063 69.2446 17.5436C68.9017 18.5809 68.416 19.4731 67.7874 20.2199C67.1778 20.9668 66.4444 21.5477 65.5872 21.9627C64.7301 22.3569 63.7967 22.554 62.7871 22.554C61.7775 22.554 60.8441 22.3569 59.9869 21.9627C59.1297 21.5477 58.3868 20.9668 57.7582 20.2199C57.1487 19.4731 56.6724 18.5809 56.3296 17.5436C55.9867 16.5063 55.8152 15.3444 55.8152 14.0581C55.8152 12.7926 55.9867 11.6411 56.3296 10.6038C56.6724 9.54567 57.1487 8.64318 57.7582 7.89629C58.3868 7.14941 59.1297 6.57887 59.9869 6.18468C60.8441 5.76974 61.7775 5.56227 62.7871 5.56227C63.7967 5.56227 64.7301 5.76974 65.5872 6.18468C66.4444 6.57887 67.1778 7.14941 67.7874 7.89629C68.416 8.64318 68.9017 9.54567 69.2446 10.6038C69.5875 11.6411 69.7589 12.7926 69.7589 14.0581ZM66.9873 14.0581C66.9873 12.2324 66.6064 10.7905 65.8444 9.73239C65.1015 8.65355 64.0824 8.11414 62.7871 8.11414C61.4918 8.11414 60.4631 8.65355 59.7012 9.73239C58.9583 10.7905 58.5868 12.2324 58.5868 14.0581C58.5868 15.8838 58.9583 17.3361 59.7012 18.415C60.4631 19.4731 61.4918 20.0021 62.7871 20.0021C64.0824 20.0021 65.1015 19.4731 65.8444 18.415C66.6064 17.3361 66.9873 15.8838 66.9873 14.0581Z" stroke="#00DE73" stroke-width="16" mask="url(#path-1-inside-1_1103_3417)" stroke-dasharray="0,0,0,0,0,81.9463119506836"><animate attributeType="XML" attributeName="stroke-dasharray" repeatCount="indefinite" dur="3.873475566536724s" values="0,0,0,0,0,81.9463119506836; 
          0,0,0,8.204305467733016,57.33339554748454,16.408610935466033; 
          0,0,27.31543731689453,0,54.63087463378906,81.9463119506836; 
          0,0,54.63087463378906,0,27.31543731689453,81.9463119506836; 
          0,0,68.28859329223633,13.657718658447266,0,0; 
          0,81.9463119506836,0,27.31543731689453,0,81.9463119506836" keyTimes="0; 0.16666666666666666; 0.3333; 0.6666; 0.8333; 1" begin="1.233299235047758s"></animate></path>
<path d="M69.7589 14.0581C69.7589 15.3444 69.5875 16.5063 69.2446 17.5436C68.9017 18.5809 68.416 19.4731 67.7874 20.2199C67.1778 20.9668 66.4444 21.5477 65.5872 21.9627C64.7301 22.3569 63.7967 22.554 62.7871 22.554C61.7775 22.554 60.8441 22.3569 59.9869 21.9627C59.1297 21.5477 58.3868 20.9668 57.7582 20.2199C57.1487 19.4731 56.6724 18.5809 56.3296 17.5436C55.9867 16.5063 55.8152 15.3444 55.8152 14.0581C55.8152 12.7926 55.9867 11.6411 56.3296 10.6038C56.6724 9.54567 57.1487 8.64318 57.7582 7.89629C58.3868 7.14941 59.1297 6.57887 59.9869 6.18468C60.8441 5.76974 61.7775 5.56227 62.7871 5.56227C63.7967 5.56227 64.7301 5.76974 65.5872 6.18468C66.4444 6.57887 67.1778 7.14941 67.7874 7.89629C68.416 8.64318 68.9017 9.54567 69.2446 10.6038C69.5875 11.6411 69.7589 12.7926 69.7589 14.0581ZM66.9873 14.0581C66.9873 12.2324 66.6064 10.7905 65.8444 9.73239C65.1015 8.65355 64.0824 8.11414 62.7871 8.11414C61.4918 8.11414 60.4631 8.65355 59.7012 9.73239C58.9583 10.7905 58.5868 12.2324 58.5868 14.0581C58.5868 15.8838 58.9583 17.3361 59.7012 18.415C60.4631 19.4731 61.4918 20.0021 62.7871 20.0021C64.0824 20.0021 65.1015 19.4731 65.8444 18.415C66.6064 17.3361 66.9873 15.8838 66.9873 14.0581Z" stroke="#FA00FF" stroke-width="16" mask="url(#path-1-inside-1_1103_3417)" stroke-dasharray="0,0,0,0,0,81.9463119506836"><animate attributeType="XML" attributeName="stroke-dasharray" repeatCount="indefinite" dur="3.7146414551540037s" values="0,0,0,0,0,81.9463119506836; 
          0,0,0,7.976082154993061,58.01806548570441,15.952164309986122; 
          0,0,27.31543731689453,0,54.63087463378906,81.9463119506836; 
          0,0,54.63087463378906,0,27.31543731689453,81.9463119506836; 
          0,0,68.28859329223633,13.657718658447266,0,0; 
          0,81.9463119506836,0,27.31543731689453,0,81.9463119506836" keyTimes="0; 0.16666666666666666; 0.3333; 0.6666; 0.8333; 1" begin="0.8318519212780091s"></animate></path>
<path d="M76.9549 20.0643C78.0407 20.0643 78.8407 19.9087 79.355 19.5975C79.8884 19.2863 80.1551 18.7884 80.1551 18.1038C80.1551 17.3984 79.8979 16.8382 79.3836 16.4233C78.8693 16.0083 78.0216 15.5415 76.8406 15.0229C76.2691 14.7739 75.7167 14.5249 75.1833 14.276C74.669 14.0063 74.2214 13.695 73.8404 13.3424C73.4594 12.9897 73.1546 12.5643 72.9261 12.0664C72.6975 11.5685 72.5832 10.9565 72.5832 10.2303C72.5832 8.79878 73.0689 7.66808 74.0404 6.8382C75.0119 5.98758 76.3358 5.56227 78.0121 5.56227C78.4312 5.56227 78.8502 5.59339 79.2693 5.65563C79.6884 5.69713 80.0789 5.75936 80.4408 5.84235C80.8027 5.90459 81.117 5.97721 81.3837 6.0602C81.6694 6.14318 81.8885 6.2158 82.0409 6.27804L81.5551 8.76766C81.2694 8.60169 80.8218 8.43571 80.2122 8.26974C79.6026 8.08302 78.8693 7.98966 78.0121 7.98966C77.2692 7.98966 76.6215 8.15563 76.0691 8.48758C75.5167 8.79878 75.2405 9.29671 75.2405 9.98136C75.2405 10.3341 75.2976 10.6453 75.4119 10.915C75.5453 11.1847 75.7357 11.4336 75.9834 11.6619C76.2501 11.8693 76.5739 12.0664 76.9549 12.2531C77.3359 12.4399 77.793 12.637 78.3264 12.8444C79.0312 13.1349 79.6598 13.4253 80.2122 13.7158C80.7646 13.9855 81.2313 14.3071 81.6123 14.6805C82.0123 15.054 82.3171 15.5104 82.5266 16.0498C82.7362 16.5685 82.8409 17.2116 82.8409 17.9793C82.8409 19.4731 82.3266 20.6038 81.298 21.3714C80.2884 22.139 78.8407 22.5228 76.9549 22.5228C75.6405 22.5228 74.6119 22.3984 73.869 22.1494C73.1261 21.9212 72.6213 21.7448 72.3546 21.6204L72.8403 19.1307C73.1451 19.2552 73.6309 19.4419 74.2976 19.6909C74.9643 19.9399 75.8501 20.0643 76.9549 20.0643Z" stroke="#FF9C06" stroke-width="16" mask="url(#path-1-inside-1_1103_3417)" stroke-dasharray="0,0,0,0,0,70.1438980102539"><animate attributeType="XML" attributeName="stroke-dasharray" repeatCount="indefinite" dur="3.981147715748461s" values="0,0,0,0,0,70.1438980102539; 
          0,0,0,7.126649697119564,48.76394891889522,14.253299394239129; 
          0,0,23.3812993367513,0,46.7625986735026,70.1438980102539; 
          0,0,46.7625986735026,0,23.3812993367513,70.1438980102539; 
          0,0,58.45324834187826,11.69064966837565,0,0; 
          0,70.1438980102539,0,23.3812993367513,0,70.1438980102539" keyTimes="0; 0.16666666666666666; 0.3333; 0.6666; 0.8333; 1" begin="0.9470366305311201s"></animate></path>
<path d="M76.9549 20.0643C78.0407 20.0643 78.8407 19.9087 79.355 19.5975C79.8884 19.2863 80.1551 18.7884 80.1551 18.1038C80.1551 17.3984 79.8979 16.8382 79.3836 16.4233C78.8693 16.0083 78.0216 15.5415 76.8406 15.0229C76.2691 14.7739 75.7167 14.5249 75.1833 14.276C74.669 14.0063 74.2214 13.695 73.8404 13.3424C73.4594 12.9897 73.1546 12.5643 72.9261 12.0664C72.6975 11.5685 72.5832 10.9565 72.5832 10.2303C72.5832 8.79878 73.0689 7.66808 74.0404 6.8382C75.0119 5.98758 76.3358 5.56227 78.0121 5.56227C78.4312 5.56227 78.8502 5.59339 79.2693 5.65563C79.6884 5.69713 80.0789 5.75936 80.4408 5.84235C80.8027 5.90459 81.117 5.97721 81.3837 6.0602C81.6694 6.14318 81.8885 6.2158 82.0409 6.27804L81.5551 8.76766C81.2694 8.60169 80.8218 8.43571 80.2122 8.26974C79.6026 8.08302 78.8693 7.98966 78.0121 7.98966C77.2692 7.98966 76.6215 8.15563 76.0691 8.48758C75.5167 8.79878 75.2405 9.29671 75.2405 9.98136C75.2405 10.3341 75.2976 10.6453 75.4119 10.915C75.5453 11.1847 75.7357 11.4336 75.9834 11.6619C76.2501 11.8693 76.5739 12.0664 76.9549 12.2531C77.3359 12.4399 77.793 12.637 78.3264 12.8444C79.0312 13.1349 79.6598 13.4253 80.2122 13.7158C80.7646 13.9855 81.2313 14.3071 81.6123 14.6805C82.0123 15.054 82.3171 15.5104 82.5266 16.0498C82.7362 16.5685 82.8409 17.2116 82.8409 17.9793C82.8409 19.4731 82.3266 20.6038 81.298 21.3714C80.2884 22.139 78.8407 22.5228 76.9549 22.5228C75.6405 22.5228 74.6119 22.3984 73.869 22.1494C73.1261 21.9212 72.6213 21.7448 72.3546 21.6204L72.8403 19.1307C73.1451 19.2552 73.6309 19.4419 74.2976 19.6909C74.9643 19.9399 75.8501 20.0643 76.9549 20.0643Z" stroke="#00DE73" stroke-width="16" mask="url(#path-1-inside-1_1103_3417)" stroke-dasharray="0,0,0,0,0,70.1438980102539"><animate attributeType="XML" attributeName="stroke-dasharray" repeatCount="indefinite" dur="4.152516552527944s" values="0,0,0,0,0,70.1438980102539; 
          0,0,0,7.809451640268356,46.71554308944884,15.618903280536712; 
          0,0,23.3812993367513,0,46.7625986735026,70.1438980102539; 
          0,0,46.7625986735026,0,23.3812993367513,70.1438980102539; 
          0,0,58.45324834187826,11.69064966837565,0,0; 
          0,70.1438980102539,0,23.3812993367513,0,70.1438980102539" keyTimes="0; 0.16666666666666666; 0.3333; 0.6666; 0.8333; 1" begin="0.419980246749054s"></animate></path>
<path d="M76.9549 20.0643C78.0407 20.0643 78.8407 19.9087 79.355 19.5975C79.8884 19.2863 80.1551 18.7884 80.1551 18.1038C80.1551 17.3984 79.8979 16.8382 79.3836 16.4233C78.8693 16.0083 78.0216 15.5415 76.8406 15.0229C76.2691 14.7739 75.7167 14.5249 75.1833 14.276C74.669 14.0063 74.2214 13.695 73.8404 13.3424C73.4594 12.9897 73.1546 12.5643 72.9261 12.0664C72.6975 11.5685 72.5832 10.9565 72.5832 10.2303C72.5832 8.79878 73.0689 7.66808 74.0404 6.8382C75.0119 5.98758 76.3358 5.56227 78.0121 5.56227C78.4312 5.56227 78.8502 5.59339 79.2693 5.65563C79.6884 5.69713 80.0789 5.75936 80.4408 5.84235C80.8027 5.90459 81.117 5.97721 81.3837 6.0602C81.6694 6.14318 81.8885 6.2158 82.0409 6.27804L81.5551 8.76766C81.2694 8.60169 80.8218 8.43571 80.2122 8.26974C79.6026 8.08302 78.8693 7.98966 78.0121 7.98966C77.2692 7.98966 76.6215 8.15563 76.0691 8.48758C75.5167 8.79878 75.2405 9.29671 75.2405 9.98136C75.2405 10.3341 75.2976 10.6453 75.4119 10.915C75.5453 11.1847 75.7357 11.4336 75.9834 11.6619C76.2501 11.8693 76.5739 12.0664 76.9549 12.2531C77.3359 12.4399 77.793 12.637 78.3264 12.8444C79.0312 13.1349 79.6598 13.4253 80.2122 13.7158C80.7646 13.9855 81.2313 14.3071 81.6123 14.6805C82.0123 15.054 82.3171 15.5104 82.5266 16.0498C82.7362 16.5685 82.8409 17.2116 82.8409 17.9793C82.8409 19.4731 82.3266 20.6038 81.298 21.3714C80.2884 22.139 78.8407 22.5228 76.9549 22.5228C75.6405 22.5228 74.6119 22.3984 73.869 22.1494C73.1261 21.9212 72.6213 21.7448 72.3546 21.6204L72.8403 19.1307C73.1451 19.2552 73.6309 19.4419 74.2976 19.6909C74.9643 19.9399 75.8501 20.0643 76.9549 20.0643Z" stroke="#FA00FF" stroke-width="16" mask="url(#path-1-inside-1_1103_3417)" stroke-dasharray="0,0,0,0,0,70.1438980102539"><animate attributeType="XML" attributeName="stroke-dasharray" repeatCount="indefinite" dur="3.6704196886308695s" values="0,0,0,0,0,70.1438980102539; 
          0,0,0,7.483776876689117,47.69256738018656,14.967553753378233; 
          0,0,23.3812993367513,0,46.7625986735026,70.1438980102539; 
          0,0,46.7625986735026,0,23.3812993367513,70.1438980102539; 
          0,0,58.45324834187826,11.69064966837565,0,0; 
          0,70.1438980102539,0,23.3812993367513,0,70.1438980102539" keyTimes="0; 0.16666666666666666; 0.3333; 0.6666; 0.8333; 1" begin="0.3396487194738501s"></animate></path>
<path d="M98.0786 21.6826C97.4691 21.8486 96.6595 22.0249 95.6499 22.2116C94.6594 22.3984 93.507 22.4917 92.1926 22.4917C91.0497 22.4917 90.0877 22.3154 89.3067 21.9627C88.5257 21.5892 87.8971 21.0706 87.4209 20.4067C86.9447 19.7428 86.6018 18.9648 86.3922 18.0726C86.1827 17.1598 86.078 16.1536 86.078 15.054V5.96683H88.7352V14.4316C88.7352 16.4025 89.021 17.8133 89.5924 18.6639C90.1639 19.5146 91.1259 19.9399 92.4783 19.9399C92.764 19.9399 93.0593 19.9295 93.3641 19.9087C93.6689 19.888 93.9546 19.8672 94.2213 19.8465C94.488 19.805 94.7261 19.7739 94.9356 19.7531C95.1642 19.7116 95.3261 19.6702 95.4213 19.6287V5.96683H98.0786V21.6826Z" stroke="#FF9C06" stroke-width="16" mask="url(#path-1-inside-1_1103_3417)" stroke-dasharray="0,0,0,0,0,79.87749481201172"><animate attributeType="XML" attributeName="stroke-dasharray" repeatCount="indefinite" dur="3.9492007225078063s" values="0,0,0,0,0,79.87749481201172; 
          0,0,0,10.776376444809866,47.548365477582124,21.552752889619732; 
          0,0,26.625831604003906,0,53.25166320800781,79.87749481201172; 
          0,0,53.25166320800781,0,26.625831604003906,79.87749481201172; 
          0,0,66.56457901000977,13.312915802001953,0,0; 
          0,79.87749481201172,0,26.625831604003906,0,79.87749481201172" keyTimes="0; 0.16666666666666666; 0.3333; 0.6666; 0.8333; 1" begin="0.6179288782645764s"></animate></path>
<path d="M98.0786 21.6826C97.4691 21.8486 96.6595 22.0249 95.6499 22.2116C94.6594 22.3984 93.507 22.4917 92.1926 22.4917C91.0497 22.4917 90.0877 22.3154 89.3067 21.9627C88.5257 21.5892 87.8971 21.0706 87.4209 20.4067C86.9447 19.7428 86.6018 18.9648 86.3922 18.0726C86.1827 17.1598 86.078 16.1536 86.078 15.054V5.96683H88.7352V14.4316C88.7352 16.4025 89.021 17.8133 89.5924 18.6639C90.1639 19.5146 91.1259 19.9399 92.4783 19.9399C92.764 19.9399 93.0593 19.9295 93.3641 19.9087C93.6689 19.888 93.9546 19.8672 94.2213 19.8465C94.488 19.805 94.7261 19.7739 94.9356 19.7531C95.1642 19.7116 95.3261 19.6702 95.4213 19.6287V5.96683H98.0786V21.6826Z" stroke="#00DE73" stroke-width="16" mask="url(#path-1-inside-1_1103_3417)" stroke-dasharray="0,0,0,0,0,79.87749481201172"><animate attributeType="XML" attributeName="stroke-dasharray" repeatCount="indefinite" dur="3.5329991485596817s" values="0,0,0,0,0,79.87749481201172; 
          0,0,0,8.705576241928664,53.76076608622572,17.41115248385733; 
          0,0,26.625831604003906,0,53.25166320800781,79.87749481201172; 
          0,0,53.25166320800781,0,26.625831604003906,79.87749481201172; 
          0,0,66.56457901000977,13.312915802001953,0,0; 
          0,79.87749481201172,0,26.625831604003906,0,79.87749481201172" keyTimes="0; 0.16666666666666666; 0.3333; 0.6666; 0.8333; 1" begin="0.14481143784010508s"></animate></path>
<path d="M98.0786 21.6826C97.4691 21.8486 96.6595 22.0249 95.6499 22.2116C94.6594 22.3984 93.507 22.4917 92.1926 22.4917C91.0497 22.4917 90.0877 22.3154 89.3067 21.9627C88.5257 21.5892 87.8971 21.0706 87.4209 20.4067C86.9447 19.7428 86.6018 18.9648 86.3922 18.0726C86.1827 17.1598 86.078 16.1536 86.078 15.054V5.96683H88.7352V14.4316C88.7352 16.4025 89.021 17.8133 89.5924 18.6639C90.1639 19.5146 91.1259 19.9399 92.4783 19.9399C92.764 19.9399 93.0593 19.9295 93.3641 19.9087C93.6689 19.888 93.9546 19.8672 94.2213 19.8465C94.488 19.805 94.7261 19.7739 94.9356 19.7531C95.1642 19.7116 95.3261 19.6702 95.4213 19.6287V5.96683H98.0786V21.6826Z" stroke="#FA00FF" stroke-width="16" mask="url(#path-1-inside-1_1103_3417)" stroke-dasharray="0,0,0,0,0,79.87749481201172"><animate attributeType="XML" attributeName="stroke-dasharray" repeatCount="indefinite" dur="4.060506658868892s" values="0,0,0,0,0,79.87749481201172; 
          0,0,0,10.601028003503314,48.07441080150178,21.20205600700663; 
          0,0,26.625831604003906,0,53.25166320800781,79.87749481201172; 
          0,0,53.25166320800781,0,26.625831604003906,79.87749481201172; 
          0,0,66.56457901000977,13.312915802001953,0,0; 
          0,79.87749481201172,0,26.625831604003906,0,79.87749481201172" keyTimes="0; 0.16666666666666666; 0.3333; 0.6666; 0.8333; 1" begin="0.8028543277740668s"></animate></path>
<path d="M106.114 20.0643C107.2 20.0643 108 19.9087 108.514 19.5975C109.047 19.2863 109.314 18.7884 109.314 18.1038C109.314 17.3984 109.057 16.8382 108.543 16.4233C108.028 16.0083 107.181 15.5415 106 15.0229C105.428 14.7739 104.876 14.5249 104.342 14.276C103.828 14.0063 103.38 13.695 102.999 13.3424C102.618 12.9897 102.314 12.5643 102.085 12.0664C101.857 11.5685 101.742 10.9565 101.742 10.2303C101.742 8.79878 102.228 7.66808 103.199 6.8382C104.171 5.98758 105.495 5.56227 107.171 5.56227C107.59 5.56227 108.009 5.59339 108.428 5.65563C108.847 5.69713 109.238 5.75936 109.6 5.84235C109.962 5.90459 110.276 5.97721 110.543 6.0602C110.828 6.14318 111.048 6.2158 111.2 6.27804L110.714 8.76766C110.428 8.60169 109.981 8.43571 109.371 8.26974C108.762 8.08302 108.028 7.98966 107.171 7.98966C106.428 7.98966 105.781 8.15563 105.228 8.48758C104.676 8.79878 104.4 9.29671 104.4 9.98136C104.4 10.3341 104.457 10.6453 104.571 10.915C104.704 11.1847 104.895 11.4336 105.142 11.6619C105.409 11.8693 105.733 12.0664 106.114 12.2531C106.495 12.4399 106.952 12.637 107.485 12.8444C108.19 13.1349 108.819 13.4253 109.371 13.7158C109.924 13.9855 110.39 14.3071 110.771 14.6805C111.171 15.054 111.476 15.5104 111.686 16.0498C111.895 16.5685 112 17.2116 112 17.9793C112 19.4731 111.486 20.6038 110.457 21.3714C109.447 22.139 108 22.5228 106.114 22.5228C104.8 22.5228 103.771 22.3984 103.028 22.1494C102.285 21.9212 101.78 21.7448 101.514 21.6204L101.999 19.1307C102.304 19.2552 102.79 19.4419 103.457 19.6909C104.123 19.9399 105.009 20.0643 106.114 20.0643Z" stroke="#FF9C06" stroke-width="16" mask="url(#path-1-inside-1_1103_3417)" stroke-dasharray="0,0,0,0,0,70.14364624023438"><animate attributeType="XML" attributeName="stroke-dasharray" repeatCount="indefinite" dur="3.504533552966495s" values="0,0,0,0,0,70.14364624023438; 
          0,0,0,6.848757287327856,49.597374378250805,13.697514574655711; 
          0,0,23.381215413411457,0,46.762430826822914,70.14364624023438; 
          0,0,46.762430826822914,0,23.381215413411457,70.14364624023438; 
          0,0,58.45303853352865,11.690607706705729,0,0; 
          0,70.14364624023438,0,23.381215413411457,0,70.14364624023438" keyTimes="0; 0.16666666666666666; 0.3333; 0.6666; 0.8333; 1" begin="1.1552935574313852s"></animate></path>
<path d="M106.114 20.0643C107.2 20.0643 108 19.9087 108.514 19.5975C109.047 19.2863 109.314 18.7884 109.314 18.1038C109.314 17.3984 109.057 16.8382 108.543 16.4233C108.028 16.0083 107.181 15.5415 106 15.0229C105.428 14.7739 104.876 14.5249 104.342 14.276C103.828 14.0063 103.38 13.695 102.999 13.3424C102.618 12.9897 102.314 12.5643 102.085 12.0664C101.857 11.5685 101.742 10.9565 101.742 10.2303C101.742 8.79878 102.228 7.66808 103.199 6.8382C104.171 5.98758 105.495 5.56227 107.171 5.56227C107.59 5.56227 108.009 5.59339 108.428 5.65563C108.847 5.69713 109.238 5.75936 109.6 5.84235C109.962 5.90459 110.276 5.97721 110.543 6.0602C110.828 6.14318 111.048 6.2158 111.2 6.27804L110.714 8.76766C110.428 8.60169 109.981 8.43571 109.371 8.26974C108.762 8.08302 108.028 7.98966 107.171 7.98966C106.428 7.98966 105.781 8.15563 105.228 8.48758C104.676 8.79878 104.4 9.29671 104.4 9.98136C104.4 10.3341 104.457 10.6453 104.571 10.915C104.704 11.1847 104.895 11.4336 105.142 11.6619C105.409 11.8693 105.733 12.0664 106.114 12.2531C106.495 12.4399 106.952 12.637 107.485 12.8444C108.19 13.1349 108.819 13.4253 109.371 13.7158C109.924 13.9855 110.39 14.3071 110.771 14.6805C111.171 15.054 111.476 15.5104 111.686 16.0498C111.895 16.5685 112 17.2116 112 17.9793C112 19.4731 111.486 20.6038 110.457 21.3714C109.447 22.139 108 22.5228 106.114 22.5228C104.8 22.5228 103.771 22.3984 103.028 22.1494C102.285 21.9212 101.78 21.7448 101.514 21.6204L101.999 19.1307C102.304 19.2552 102.79 19.4419 103.457 19.6909C104.123 19.9399 105.009 20.0643 106.114 20.0643Z" stroke="#00DE73" stroke-width="16" mask="url(#path-1-inside-1_1103_3417)" stroke-dasharray="0,0,0,0,0,70.14364624023438"><animate attributeType="XML" attributeName="stroke-dasharray" repeatCount="indefinite" dur="4.057286501849147s" values="0,0,0,0,0,70.14364624023438; 
          0,0,0,9.677725519780289,41.11046968089351,19.355451039560577; 
          0,0,23.381215413411457,0,46.762430826822914,70.14364624023438; 
          0,0,46.762430826822914,0,23.381215413411457,70.14364624023438; 
          0,0,58.45303853352865,11.690607706705729,0,0; 
          0,70.14364624023438,0,23.381215413411457,0,70.14364624023438" keyTimes="0; 0.16666666666666666; 0.3333; 0.6666; 0.8333; 1" begin="1.1636803622485283s"></animate></path>
<path d="M106.114 20.0643C107.2 20.0643 108 19.9087 108.514 19.5975C109.047 19.2863 109.314 18.7884 109.314 18.1038C109.314 17.3984 109.057 16.8382 108.543 16.4233C108.028 16.0083 107.181 15.5415 106 15.0229C105.428 14.7739 104.876 14.5249 104.342 14.276C103.828 14.0063 103.38 13.695 102.999 13.3424C102.618 12.9897 102.314 12.5643 102.085 12.0664C101.857 11.5685 101.742 10.9565 101.742 10.2303C101.742 8.79878 102.228 7.66808 103.199 6.8382C104.171 5.98758 105.495 5.56227 107.171 5.56227C107.59 5.56227 108.009 5.59339 108.428 5.65563C108.847 5.69713 109.238 5.75936 109.6 5.84235C109.962 5.90459 110.276 5.97721 110.543 6.0602C110.828 6.14318 111.048 6.2158 111.2 6.27804L110.714 8.76766C110.428 8.60169 109.981 8.43571 109.371 8.26974C108.762 8.08302 108.028 7.98966 107.171 7.98966C106.428 7.98966 105.781 8.15563 105.228 8.48758C104.676 8.79878 104.4 9.29671 104.4 9.98136C104.4 10.3341 104.457 10.6453 104.571 10.915C104.704 11.1847 104.895 11.4336 105.142 11.6619C105.409 11.8693 105.733 12.0664 106.114 12.2531C106.495 12.4399 106.952 12.637 107.485 12.8444C108.19 13.1349 108.819 13.4253 109.371 13.7158C109.924 13.9855 110.39 14.3071 110.771 14.6805C111.171 15.054 111.476 15.5104 111.686 16.0498C111.895 16.5685 112 17.2116 112 17.9793C112 19.4731 111.486 20.6038 110.457 21.3714C109.447 22.139 108 22.5228 106.114 22.5228C104.8 22.5228 103.771 22.3984 103.028 22.1494C102.285 21.9212 101.78 21.7448 101.514 21.6204L101.999 19.1307C102.304 19.2552 102.79 19.4419 103.457 19.6909C104.123 19.9399 105.009 20.0643 106.114 20.0643Z" stroke="#FA00FF" stroke-width="16" mask="url(#path-1-inside-1_1103_3417)" stroke-dasharray="0,0,0,0,0,70.14364624023438"><animate attributeType="XML" attributeName="stroke-dasharray" repeatCount="indefinite" dur="4.099945029185295s" values="0,0,0,0,0,70.14364624023438; 
          0,0,0,7.281780564370465,48.29830454712298,14.56356112874093; 
          0,0,23.381215413411457,0,46.762430826822914,70.14364624023438; 
          0,0,46.762430826822914,0,23.381215413411457,70.14364624023438; 
          0,0,58.45303853352865,11.690607706705729,0,0; 
          0,70.14364624023438,0,23.381215413411457,0,70.14364624023438" keyTimes="0; 0.16666666666666666; 0.3333; 0.6666; 0.8333; 1" begin="0.9173277762194962s"></animate></path>
<setting>{"type":"delay","speed":18,"random":0.8,"shift":0.5,"size":0.8,"rupture":73}</setting></svg>